<svg id="Layer_1" data-name="Layer 1" xmlns="http://www.w3.org/2000/svg" xmlns:xlink="http://www.w3.org/1999/xlink" viewBox="0 0 599.54 468.79"><defs><style>.cls-1{fill:none;}.cls-2{fill:#fff;}.cls-3{clip-path:url(#clip-path);}.cls-4{clip-path:url(#clip-path-2);}.cls-5{fill:#c51d3e;}</style><clipPath id="clip-path"><path class="cls-1" d="M671,158.08l-216.12-25.7A223.51,223.51,0,0,0,32.3,231.1c-1.52,124.71,99.11,226.28,223.47,226.28a223.25,223.25,0,0,0,184.42-97.23,59.83,59.83,0,0,1,61.26-25L608.16,356.9Z"/></clipPath><clipPath id="clip-path-2"><rect class="cls-1" x="69.84" y="149.85" width="504.83" height="558.73"/></clipPath></defs><path d="M256.35,10.41C132.6,10.41,32.29,110.73,32.29,234.47S132.6,458.53,256.35,458.53s224-100.31,224-224.06S380.09,10.41,256.35,10.41Zm0,384.87a160.81,160.81,0,1,1,160.8-160.81A160.81,160.81,0,0,1,256.35,395.28Z"/><path class="cls-2" d="M112.88,104.72a7.19,7.19,0,0,1,7.59,1.38,7.75,7.75,0,0,1,2.75,5.42,7.36,7.36,0,0,1-1.92,5.61l-7.59,8.6-21-18.54,7.05-8a7.1,7.1,0,0,1,5.14-2.5,7.43,7.43,0,0,1,5.51,2A6.83,6.83,0,0,1,112.88,104.72Zm-10.52-3.2-4.7,5.32,6.42,5.67,4.7-5.32a3.66,3.66,0,0,0,.93-2.93,4.56,4.56,0,0,0-4.55-4A3.67,3.67,0,0,0,102.36,101.52Zm16.33,13.31a4,4,0,0,0,1-3.13,4.6,4.6,0,0,0-1.62-3.06,4.53,4.53,0,0,0-3.22-1.19,3.93,3.93,0,0,0-3,1.36l-5.26,6,6.81,6Z"/><path class="cls-2" d="M134.74,99l8.75-7.42,2.27,2.68L134.32,104,116.19,82.62l2.7-2.29Z"/><path class="cls-2" d="M169.44,78.69l-5.13-4.23L154.1,80.72l1.44,6.49-3.21,2-6.19-29.07,3.4-2.08,23.1,18.69Zm-16.12-1.57,8.13-5-11.3-9.27Z"/><path class="cls-2" d="M192.23,68.79a13.08,13.08,0,0,1-10.82-.24A14.58,14.58,0,0,1,174,60.39a14.54,14.54,0,0,1-.13-11,13.07,13.07,0,0,1,7.74-7.57,12.8,12.8,0,0,1,6.91-.75,13,13,0,0,1,6.26,2.86l-2.17,2.88A8.84,8.84,0,0,0,188,44.57a9.4,9.4,0,0,0-5.15.55,9.79,9.79,0,0,0-5.84,5.66,11,11,0,0,0,.16,8.32,11,11,0,0,0,5.56,6.16,9.81,9.81,0,0,0,8.12.15A9.36,9.36,0,0,0,195,62.29a8.85,8.85,0,0,0,1.82-4.66l3.54.59a13,13,0,0,1-8.16,10.57Z"/><path class="cls-2" d="M231.79,57.69l-4.25.86-13.9-10.92,2.65,13.18-3.46.7L207.3,34.05l3.46-.7,2.5,12.4,8.38-14.59,4.25-.85L217.06,46Z"/><path class="cls-2" d="M273.63,57l-5.35-11L262,45.64l-.61,10.7-3.53-.2,1.6-28,10.62.61a7.82,7.82,0,0,1,5.7,2.87,8.88,8.88,0,0,1,.26,11.14,8.33,8.33,0,0,1-4.14,2.93l5.62,11.54ZM262.81,31.85l-.59,10.43,7.09.4a4.34,4.34,0,0,0,3.44-1.34,5.61,5.61,0,0,0,.43-7.37,4.37,4.37,0,0,0-3.27-1.71Z"/><path class="cls-2" d="M304.49,62.75l-.69-6.61-11.67-2.7-3.52,5.64-3.67-.85,16-25.06,3.89.9,3.36,29.52ZM294.1,50.33l9.29,2.14-1.55-14.53Z"/><path class="cls-2" d="M322.26,68.93l1.84-29.52,3.52,1.44L325.88,65.4l16-18.71,3.56,1.46L326,70.45Z"/><path class="cls-2" d="M348.12,77.56,358.68,84l-1.83,3-13.58-8.23L357.8,54.79l13.42,8.14-1.83,3L359,59.63,354.53,67l9.59,5.81-1.81,3L352.72,70Z"/><path class="cls-2" d="M396.37,82.5l2.7,2.28L381,106.16l-2.18-1.84,3.09-24.81-13.53,16-2.69-2.28,18.1-21.38,2.17,1.84-3.05,24.78Z"/><path class="cls-2" d="M394.51,121.48a10.86,10.86,0,0,1-2.76-6,9.62,9.62,0,0,1,1.4-6.09l3.38,1.09q-2.83,4.5.79,8.7a6.5,6.5,0,0,0,3.63,2.4,3.88,3.88,0,0,0,3.32-1,3.42,3.42,0,0,0,1.33-3.06,20.52,20.52,0,0,0-1.55-5c-.45-1.08-.77-1.92-1-2.51a19.34,19.34,0,0,1-.64-2.34,6.88,6.88,0,0,1-.19-2.42,7.24,7.24,0,0,1,.71-2.14,6.81,6.81,0,0,1,1.72-2.17,7.33,7.33,0,0,1,6-1.94,8.73,8.73,0,0,1,5.5,3.09,9.19,9.19,0,0,1,2.31,5.26,10.36,10.36,0,0,1-1.07,5.56l-3.29-1.07q2.15-4.11-.68-7.39a5.2,5.2,0,0,0-3.13-1.92,3.78,3.78,0,0,0-3.18,1,3.34,3.34,0,0,0-1.3,2.78,16.26,16.26,0,0,0,1.32,4.59c.3.71.51,1.22.62,1.52s.29.78.51,1.44.37,1.16.45,1.5.17.79.29,1.38a4.76,4.76,0,0,1,.12,1.42c0,.37-.09.81-.16,1.32a3.71,3.71,0,0,1-.41,1.33,9.35,9.35,0,0,1-.78,1.21,7.64,7.64,0,0,1-1.15,1.21,7.28,7.28,0,0,1-6.1,1.9A9.85,9.85,0,0,1,394.51,121.48Z"/><g class="cls-3"><g class="cls-4"><path d="M573.94,279.48a23.41,23.41,0,0,0,.74-6.39c0-17.77-14.38-68.08-169.66-93,0,0-45.1-30.28-106.56-30.28-69.12,0-158.94,38.29-228.62,201V843.28s360.06-.93,392.41-109.74c43.32-145.72-26.58-247.13-82.76-295.77C324.37,390,342.7,323,355,304.93a20.09,20.09,0,0,1,1.79-2.21,18.88,18.88,0,0,1,11.4-5.79c9.82-1.21,23.39,5.37,50.93,17.81a184,184,0,0,0,53.1,14.8c43.29,5.38,67.95.18,67.95.18s-84.32-44.45-164.83-73.2C375.33,256.52,473.83,219.17,573.94,279.48Zm-370.34-30q2.31-1.91,4.62-3.69Q205.91,247.58,203.6,249.47Zm5.78-4.59c1.93-1.48,3.86-2.89,5.8-4.25Q212.27,242.67,209.38,244.88Zm-12.67,10.5q2.86-2.55,5.74-4.95Q199.57,252.83,196.71,255.38Zm-9.09,8.48q2.25-2.21,4.53-4.32Q189.87,261.67,187.62,263.86Zm207.87-73.73s0,0,0,0a.54.54,0,0,1,.07-.13Zm-43.05,7c-.4-.2-.82-.41-1.28-.61C351.62,196.68,352.05,196.88,352.44,197.09ZM229,208.38c-2.68,1.87-4.18,3.15-4.29,3.24h0l0,0,0,0C225,211.31,226.52,210.08,229,208.38Zm9.77-5.91a94.54,94.54,0,0,0-9,5.35A89.31,89.31,0,0,1,238.74,202.47Zm3.51-1.76c-.91.44-1.8.87-2.66,1.32C240.45,201.58,241.34,201.14,242.25,200.71Zm49.65-6.6c-1-.09-2-.18-2.92-.28C289.89,193.93,290.87,194,291.9,194.11Zm-3.17-.3-1.47-.18Zm-3-.36-.8-.11C285.23,193.37,285.49,193.4,285.78,193.45ZM257,195.26c1.15-.31,2.32-.59,3.51-.85C259.35,194.67,258.18,195,257,195.26Zm46.7,30.28a18.54,18.54,0,0,1,3.67-3.39,17.88,17.88,0,0,0-3.65,3.39Zm7-5.3c-.47.21-.91.42-1.34.65C309.86,220.66,310.3,220.44,310.77,220.24Zm-5.93-21.39c-.71,0-1.1,0-1.1,0h0Zm.78,0-.76,0Zm14,20.24.07.07-.24-.19.06,0ZM277.22,269.3l-1.49.22Zm-2,.3-1.43.24Zm4.12-.56-1.62.2Zm2.26-.23-1.83.18Zm-8.22,1.11-1.43.28Zm-3.27.68c-1.07.24-2.08.5-3,.77C268,271.1,269.06,270.84,270.12,270.6Zm1.56-.34c-.5.1-1,.2-1.46.31C270.69,270.46,271.18,270.36,271.68,270.26Zm-12.86,4.11-1.27.62Zm5.5-2.16c-1.08.36-2.07.73-3,1.09C262.25,272.93,263.24,272.57,264.32,272.21Zm0,0c.65-.22,1.33-.43,2-.63Zm18.82-3.52a3.55,3.55,0,0,1,.46,0l.83-.05.36,0h-.06l-2.23.14-.25,0Zm3.54-.19q3-.12,6.42-.05a46.85,46.85,0,0,0,7.22-.41,45.66,45.66,0,0,1-7.23.42c-2.34,0-4.58,0-6.7.06h0l-.81,0-.66,0Zm43.83-75.31a44.51,44.51,0,0,1,20.65,3.28A44.67,44.67,0,0,0,330.51,193.19Zm37.66,20.65c0,.13,0,.44,0,.87,0-.6-.06-1-.06-1h0v0A.18.18,0,0,0,368.17,213.84Zm0,.88a52.38,52.38,0,0,1-.24,7.74A52.38,52.38,0,0,0,368.21,214.72ZM367.9,223c-.09.7-.22,1.4-.37,2.05a.25.25,0,0,1,0,.07,4.05,4.05,0,0,1-.12.47h0A21.34,21.34,0,0,0,367.9,223ZM381,200.88a14.16,14.16,0,0,1-4.66,2.64,17.79,17.79,0,0,1-10.42,0,42.5,42.5,0,0,1-9.75-4.25,42.43,42.43,0,0,0,9.72,4.23,17.73,17.73,0,0,0,10.45,0,14.41,14.41,0,0,0,4.66-2.66Zm-27.83-3.37c.85.5,1.86,1.11,3,1.76-1.13-.64-2.14-1.25-3-1.75-.23-.14-.49-.28-.75-.42C352.71,197.23,353,197.37,353.2,197.51Zm-42.71-4.82h0a0,0,0,0,1,0,0c-4.18,2-12.11,1.92-18.35,1.42,6.21.5,14.1.61,18.31-1.42Zm85.3-3.22a3.85,3.85,0,0,1-.22.52ZM118.09,351c2.79-4.21,5.68-8.5,8.68-12.83C123.78,342.45,120.88,346.74,118.09,351Zm10.48-15.43Q132.22,330.3,136,325,132.21,330.3,128.57,335.52Zm9.36-13.12c1.28-1.75,2.58-3.51,3.89-5.26C140.51,318.89,139.22,320.65,137.93,322.4Zm3.89-5.26q2.94-3.94,6-7.87Q144.78,313.19,141.82,317.14Zm10-13.09q3.09-3.9,6.23-7.73Q154.94,300.16,151.86,304.05Zm84.41-53.6h0Zm.18-.36-.12.23s0,0,0,0a.7.7,0,0,1,.1-.19c.07-.16.18-.37.31-.62C236.63,249.72,236.52,249.93,236.45,250.09Zm.36-.71c.2-.4.45-.89.76-1.46C237.27,248.49,237,249,236.81,249.38Zm98.63,6.87v0h0c.08-.2.15-.41.22-.6,1.84-5.5-.69-11.29-.8-11.55h0s2.7,5.94.8,11.57c-.06.19-.13.38-.2.57C335.45,256.24,335.45,256.25,335.44,256.25Zm11.59,47h0l23.65-55.18Z"/><path class="cls-5" d="M561.18,260.92s-63.78-47.16-152.31-28.61c0,0,.78-3.86,15.08-10.05,0,0-39.82,4.64-73.45,38.66,0,0,12.37-23.2,29-38.66,0,0-.73,3.25-6.18,13.53,0,0,18.94-20.49,37.11-25.9,0,0-15.06,1.66-27.05,8.56,0,0,17-25.18,48.7-19.38,0,0-12.37,3.09-16.63,8.5C415.44,207.57,505.13,188.63,561.18,260.92Z"/><path class="cls-5" d="M331.56,289.67s-61.08,34.79-81.57,97.8c0,0,34.58-45.8,77.32-57.6C327.31,329.87,303.72,312.09,331.56,289.67Z"/><path class="cls-5" d="M199.58,470.37s29.39,0,53.17-60.5c0,0-17.16,30.13-60.6,39-11.92,2.43-30.56-6.13-30.56-6.13C166.82,456.76,186.48,470.37,199.58,470.37Z"/><path class="cls-5" d="M220.23,267.1S183.5,326.63,224.86,380c0,0-45.61-26.67-41.75-76.54C183.11,303.44,183.57,290.69,220.23,267.1Z"/><path class="cls-5" d="M225.65,403.34s-62.26-2.71-70.67-79.8c0,0-32.55,74.84,22.17,105.74C177.15,429.28,210.22,432.69,225.65,403.34Z"/><path class="cls-5" d="M182.49,582.41c24.29-23.27,92.38-76.47,89.21-137.54,0,0-29.31,62.47-85.19,96.42,0,0-48.15-12.13-80.37-48.17,0,0,11.75,35.24,54,75.78-38.18-17-59.78-39.12-67.94-60.25C81.93,482,85,460.16,85,460.16c40.91,41.84,104.47,60.65,104.47,60.65C248.36,471.48,289,386.61,289,386.61,282.89,444.17,318.89,516.31,182.49,582.41Z"/><path class="cls-5" d="M325.75,206.45l15.14,10.34s16.2-1.62,16.14-4.78-13.31-7.43-16.15-7.72C336.86,203.87,327.58,202.62,325.75,206.45Z"/><path class="cls-5" d="M367.38,225.61s19.13-20.72,28.19-35.61c0,0-128.18-92.22-263.48,68.6,0,0,13.91-13.15,27.44-17,0,0-83.2,65.18-100.89,196.64l1.51,34.56S90.4,293.41,190.85,246.61c0,0-56.44,41.75-64.18,84.66,0,0,29.77-71.13,120-106.88,0,0-10.64,14.44-10.44,26.06,0,0,9.86-23.16,27.83-31.28,0,0-15.66,31.7-11,58.56,0,0,15.11-8.43,31.72-9.14s44-3.91,50-24.49c0,0,1.74,6.77.58,12.18,0,0,17.43-31.7-31.68-30.73,0,0,10.42-8.7,16-6.38,0,0-40.79-34.79-95.1-7.54,0,0,19.14-20.42,58.57-18.56,0,0,21.64,1,27.25-.37,0,0-2.51,3.09-8.31,5.5,0,0,11.21,1.12,20.49-3.26,8.81-4.16,29-2.55,40.34,6.7a13.3,13.3,0,0,0,8.61,3.16,14.4,14.4,0,0,0,9.42-3.93s-2.42,10.31-12.89,12.89A28.69,28.69,0,0,1,367.38,225.61Z"/><path class="cls-5" d="M117.4,357.56s-26.29,43.68-24.74,75.77c0,0,39.4,40.5,80.86,49.58C173.52,482.91,99.11,440.26,117.4,357.56Z"/><path class="cls-5" d="M449.53,726.27l-14,2.71c6.8-105.6-43.67-182.71-44.41-183.83,18.9,59.63,8.51,135.48-5.37,193.43l-15.06,2.91s32.81-185.61-20.35-301.15C350.32,440.34,473.69,548.72,449.53,726.27Z"/><path class="cls-5" d="M324,351s-33.68,61.31-13.25,154.47c0,0,2.89-39.05,8.67-42.91a16,16,0,0,1,12.93-1.79S314.57,395,324,351Z"/><path class="cls-5" d="M388.83,286.91S416.53,302,448.48,311a385.19,385.19,0,0,0,53.72,11S415.78,279,379.5,264.73a53.77,53.77,0,0,0,31.66,22.18S405.83,289.67,388.83,286.91Z"/><path class="cls-5" d="M285,290.5c-20.88,1.88-38.46,12.25-46.49,17.75a116.5,116.5,0,0,1-1.58-35C208.22,315,235,370.41,235,370.41c4.51-23,17.32-45,43.87-62.58,19.88-13.19,41.17-21,49.05-34.24C328,273.59,313.61,287.91,285,290.5Z"/></g></g></svg>